<?xml version="1.0" encoding="iso-8859-1"?>
<!-- Generator: Adobe Illustrator 19.0.0, SVG Export Plug-In . SVG Version: 6.00 Build 0)  -->
<svg version="1.1" id="Layer_1" xmlns="http://www.w3.org/2000/svg" xmlns:xlink="http://www.w3.org/1999/xlink" x="0px" y="0px"
	 viewBox="0 0 511.999 511.999" style="enable-background:new 0 0 511.999 511.999;" xml:space="preserve">
<path style="fill:#FFB74D;" d="M161.535,338.55l-21.279,7.015c-3.895,1.662-16.187,12.292-25.174,20.055
	c-6.259,5.408-12.694,10.966-19.186,16.31c-21.213,17.44-43.108,32.544-61.921,32.544c-3.737,0-7.351-0.598-10.807-1.887
	c-11.854-4.4-19.131-15.31-21.652-32.414c-4.502-30.638,1.644-59.941,10.425-83.78v-0.009
	c12.022-32.656,28.967-55.074,30.181-56.653l9.817-12.787L161.535,338.55z"/>
<path style="fill:#FF9A00;" d="M161.535,338.55l-21.279,7.015c-3.895,1.662-16.187,12.292-25.174,20.055
	c-6.259,5.408-12.694,10.966-19.186,16.31l-83.957-85.536v-0.009c12.022-32.656,28.967-55.074,30.181-56.653l9.817-12.787
	L161.535,338.55z"/>
<path style="fill:#FFB74D;" d="M214.245,320.971l-33.076,20.083l-6.688,4.064l-28.658,17.393L22.027,236.444l5.119-9.164
	c1.14-2.046,19.653-34.524,55.766-60.501c18.653-13.423,42.016-25.109,70.104-29.957l6.81-1.177l10.313,9.518L214.245,320.971z"/>
<path style="fill:#FF9A00;" d="M214.245,320.971l-33.076,20.083l-6.688,4.064L82.91,166.779
	c18.653-13.423,42.016-25.109,70.104-29.957l6.81-1.177l10.313,9.518L214.245,320.971z"/>
<g>
	<path style="fill:#FFB74D;" d="M510.486,379.604c-2.522,17.113-9.799,28.023-21.652,32.423c-3.457,1.289-7.071,1.887-10.807,1.887
		c-19.542,0-42.399-16.291-64.378-34.59c-5.66-4.699-11.265-9.537-16.73-14.264c-8.986-7.772-21.279-18.392-25.174-20.055
		l-21.279-7.015l109.598-111.606l9.817,12.788c1.271,1.653,19.672,25.996,31.722,60.997
		C509.533,323.185,514.718,350.806,510.486,379.604z"/>
	<path style="fill:#FFB74D;" d="M489.46,236.444L365.655,362.511l-29.751-18.065l-38.662-23.474l44.108-175.808l10.312-9.518
		l6.8,1.177c28.089,4.848,51.451,16.533,70.113,29.957c36.103,25.977,54.617,58.456,55.766,60.501L489.46,236.444z"/>
	<path style="fill:#FFB74D;" d="M371.502,140.101L320.63,342.885H190.837l-50.88-202.784l5.091-5.558
		c13.88-15.17,36.926-26.005,68.498-32.198c22.475-4.408,41.147-4.801,41.932-4.82H256c0.915,0.019,19.532,0.429,41.922,4.82
		c31.573,6.193,54.617,17.029,68.498,32.198L371.502,140.101z"/>
</g>
<g>
	<path style="fill:#FF9A00;" d="M371.502,140.101L320.63,342.885h-64.631V97.525c0.915,0.019,19.532,0.429,41.922,4.82
		c31.573,6.193,54.617,17.029,68.498,32.198L371.502,140.101z"/>
	<path style="fill:#FF9A00;" d="M489.46,236.444L365.655,362.511l-29.751-18.065l92.673-177.665
		c36.103,25.977,54.617,58.456,55.766,60.501L489.46,236.444z"/>
	<path style="fill:#FF9A00;" d="M510.486,379.604c-2.522,17.113-9.799,28.023-21.652,32.423c-3.457,1.289-7.071,1.887-10.807,1.887
		c-19.542,0-42.399-16.291-64.378-34.59l87.955-79.156C509.533,323.185,514.718,350.806,510.486,379.604z"/>
</g>
</svg>
